<svg xmlns="http://www.w3.org/2000/svg" xmlns:xlink="http://www.w3.org/1999/xlink" width="549.33" height="557.66" viewBox="0 0 549.33 557.66">
  <defs>
    <style>
      .cls-1, .cls-10, .cls-11, .cls-12, .cls-13, .cls-14, .cls-15, .cls-16, .cls-17, .cls-18, .cls-19, .cls-2, .cls-20, .cls-21, .cls-3, .cls-4, .cls-5, .cls-6, .cls-7, .cls-8, .cls-9 {
        fill-rule: evenodd;
      }

      .cls-1 {
        fill: url(#GradientFill_1);
      }

      .cls-2 {
        fill: #75ac30;
      }

      .cls-3 {
        fill: url(#GradientFill_2);
      }

      .cls-4 {
        fill: url(#GradientFill_3);
      }

      .cls-5, .cls-8 {
        fill: #6f892b;
      }

      .cls-5 {
        opacity: 0.5;
      }

      .cls-6 {
        fill: url(#GradientFill_2-2);
      }

      .cls-7 {
        fill: url(#GradientFill_2-3);
      }

      .cls-8 {
        opacity: 0.35;
      }

      .cls-9 {
        fill: url(#GradientFill_3-2);
      }

      .cls-10 {
        fill: url(#GradientFill_3-3);
      }

      .cls-11 {
        fill: url(#GradientFill_4);
      }

      .cls-12 {
        fill: #ccdc84;
      }

      .cls-13 {
        fill: url(#GradientFill_5);
      }

      .cls-14 {
        fill: url(#GradientFill_4-2);
      }

      .cls-15 {
        fill: #6f8939;
      }

      .cls-16 {
        fill: url(#GradientFill_6);
      }

      .cls-17 {
        fill: url(#GradientFill_6-2);
      }

      .cls-18 {
        fill: url(#GradientFill_7);
      }

      .cls-19 {
        fill: #92b041;
      }

      .cls-20 {
        fill: #a9ca55;
      }

      .cls-21 {
        fill: url(#GradientFill_8);
      }
    </style>
    <radialGradient id="GradientFill_1" data-name="GradientFill 1" cx="281.78" cy="428.59" r="263.58" gradientTransform="translate(4.23 224.44) rotate(1.21) scale(1 0.46)" gradientUnits="userSpaceOnUse">
      <stop offset="0" stop-color="#bbbdbf"/>
      <stop offset="0.99" stop-color="#fff"/>
      <stop offset="1" stop-color="#fff"/>
    </radialGradient>
    <radialGradient id="GradientFill_2" data-name="GradientFill 2" cx="195.13" cy="353.13" r="171.64" gradientUnits="userSpaceOnUse">
      <stop offset="0" stop-color="#215118"/>
      <stop offset="0.5" stop-color="#689c36"/>
      <stop offset="0.73" stop-color="#97ca43"/>
      <stop offset="1" stop-color="#95c93d"/>
    </radialGradient>
    <radialGradient id="GradientFill_3" data-name="GradientFill 3" cx="187.51" cy="381.69" r="186.59" gradientTransform="matrix(1, 0.07, -0.04, 0.57, 16.43, 151.52)" gradientUnits="userSpaceOnUse">
      <stop offset="0" stop-color="#5b8129"/>
      <stop offset="1" stop-color="#9ac958"/>
    </radialGradient>
    <radialGradient id="GradientFill_2-2" cx="234.99" cy="218.88" r="253" xlink:href="#GradientFill_2"/>
    <radialGradient id="GradientFill_2-3" cx="377.3" cy="235.89" r="208.76" xlink:href="#GradientFill_2"/>
    <radialGradient id="GradientFill_3-2" cx="163.63" cy="194.86" r="163.31" gradientTransform="translate(-41.22 323.03) rotate(-79.41) scale(1 0.91)" xlink:href="#GradientFill_3"/>
    <radialGradient id="GradientFill_3-3" cx="420.13" cy="227.67" r="224.07" gradientTransform="translate(387.75 661.54) rotate(-100.8) scale(1 0.5)" xlink:href="#GradientFill_3"/>
    <radialGradient id="GradientFill_4" data-name="GradientFill 4" cx="276.17" cy="244.73" r="134.31" gradientUnits="userSpaceOnUse">
      <stop offset="0" stop-color="#d7e7a4"/>
      <stop offset="0.43" stop-color="#b6d774"/>
      <stop offset="1" stop-color="#9ecd61"/>
    </radialGradient>
    <radialGradient id="GradientFill_5" data-name="GradientFill 5" cx="277.84" cy="224.93" r="100.78" gradientUnits="userSpaceOnUse">
      <stop offset="0" stop-color="#abd379"/>
      <stop offset="0.02" stop-color="#abd379"/>
      <stop offset="0.72" stop-color="#9ecd61"/>
      <stop offset="1" stop-color="#9ecd61"/>
    </radialGradient>
    <radialGradient id="GradientFill_4-2" cx="249.03" cy="196.09" r="116.56" xlink:href="#GradientFill_4"/>
    <radialGradient id="GradientFill_6" data-name="GradientFill 6" cx="287.84" cy="134.48" r="183.73" gradientUnits="userSpaceOnUse">
      <stop offset="0" stop-color="#cdde66"/>
      <stop offset="1" stop-color="#7aa940"/>
    </radialGradient>
    <radialGradient id="GradientFill_6-2" cx="446.68" cy="272.42" r="133.91" xlink:href="#GradientFill_6"/>
    <radialGradient id="GradientFill_7" data-name="GradientFill 7" cx="295.07" cy="232.02" r="225.75" gradientTransform="translate(6.36 48.98) rotate(2.05) scale(1 0.74)" gradientUnits="userSpaceOnUse">
      <stop offset="0" stop-color="#a3cf60"/>
      <stop offset="0.29" stop-color="#a0cc5d"/>
      <stop offset="0.52" stop-color="#97c255"/>
      <stop offset="0.74" stop-color="#88b148"/>
      <stop offset="0.94" stop-color="#739935"/>
      <stop offset="1" stop-color="#6b902d"/>
    </radialGradient>
    <radialGradient id="GradientFill_8" data-name="GradientFill 8" cx="318" cy="169.88" r="144.95" gradientUnits="userSpaceOnUse">
      <stop offset="0" stop-color="#86b340"/>
      <stop offset="0.25" stop-color="#86b340"/>
      <stop offset="0.85" stop-color="#92bf4d"/>
      <stop offset="1" stop-color="#9ecd61"/>
    </radialGradient>
  </defs>
  <title>капуста Ресурс 1</title>
  <g id="Слой_2" data-name="Слой 2">
    <g id="_1" data-name="1">
      <path class="cls-1" d="M546.45,432.56c-.55,71.25-119.5,127.23-265.67,125S16.56,495.86,17.1,424.62s119.5-127.24,265.67-125S547,361.32,546.45,432.56Z"/>
      <g>
        <path class="cls-2" d="M163.73,247.19c-8,1.43-16.37-.07-24.5.87-9.23,1.06-18.3,4.16-27.76,4.74-16.75,1-33.49-3-50-2.11-14.52.8-35,8.26-43.35,20.49C9.37,284,8,299.69,2.27,313.88-1.87,324.19,1.15,324.57,5,334.23s3.2,18.58,8.3,27.68c4,7.13,5.57,18.71,12.65,22.67,2.95,1.65,7.84,1.05,11.15,2.25,3.47,1.26,6.69,3.85,10.07,5.42,6.09,2.84,2.94,2.86,8.78,1.07,4.08-1.23,5.8-4.33,10.81-4.89,7.83-.88,15.51,2.94,21.35,7.94,14.22,12.2,13.63,33.12,28,44.74-3.44,9-10.34,17.44-4,26.66,4.6,6.68,15.5,15.94,23.36,18.14,11.86,3.34,19.71-4.24,27.41-11.88,8.85-8.76,17.41-8.92,28.14-2.58,7.71,4.55,14.66,10.4,22.44,14.92,11,6.38,17.32-.75,27.05,8.66,3.62,3.5,5.39,7.71,11.1,8.07,6,.37,7.31-5.25,14.17-2.87,4.1,1.43,6.35,7.14,11.07,8,7,1.32,5.43-3.67,12.12-5.85,4.88-1.58,10.61,2.66,15.41,1,5.09-1.77,6-6.61,11.53-8.13,4.88-1.36,10.67,2.69,15.39.92,5.31-2,6.51-7.19,10.28-11.51,5.67-6.47,13.59-16.51,22.48-18.06,10.78-1.88,20.93,5.18,32,3.24,19.2-3.39,11.13-12.8,6.86-25.81-4.08-12.39,2.25-17.27,8.8-27.14,7.5-11.33,4.06-14.59-7-20.5-8.5-4.51-18-7.65-26-13C360,371,359.55,344.48,340.49,331.81c-17.19-11.43-41-21-60.37-27.5-21.61-7.31-45.27-7.53-64.88-20.91-9-6.17-17.16-14-25.44-21.11-3.1-2.67-7.26-6.45-11-8.07-4.81-2.05-12.05,1.11-14.34-4.77Z"/>
        <path class="cls-3" d="M165.25,249c-8.12,1.48-16.48.06-24.68,1-9.31,1.12-18.47,4.27-28,4.91-16.89,1.12-33.73-2.75-50.4-1.72-14.64.92-35.36,8.45-43.83,20.63-8.9,12.81-10.43,28.32-16.28,42.42-4.24,10.23-1.19,10.58,2.6,20.11s3.09,18.39,8.17,27.35c4,7,5.47,18.51,12.59,22.36,3,1.61,7.89,1,11.21,2.14,3.49,1.23,6.72,3.76,10.11,5.29,6.12,2.77,2.93,2.8,8.85,1,4.13-1.25,5.88-4.32,10.93-4.92,7.9-.92,15.62,2.8,21.46,7.71,14.22,12,13.49,32.69,27.91,44.09-3.54,8.93-10.55,17.35-4.23,26.43,4.58,6.59,15.51,15.66,23.41,17.8,11.94,3.21,19.89-4.36,27.71-12,9-8.75,17.6-9,28.36-2.77,7.75,4.45,14.71,10.19,22.51,14.6,11,6.24,17.45-.87,27.19,8.38,3.62,3.44,5.38,7.59,11.13,7.9,6.06.33,7.4-5.25,14.3-2.95,4.12,1.38,6.35,7,11.1,7.87,7,1.26,5.5-3.67,12.25-5.88,4.93-1.6,10.67,2.54,15.52.85,5.14-1.78,6.14-6.58,11.67-8.12,4.94-1.4,10.72,2.57,15.5.79,5.38-2,6.61-7.18,10.45-11.47,5.76-6.46,13.81-16.47,22.79-18.07,10.87-1.94,21,5,32.2,3,19.37-3.51,11.32-12.74,7.11-25.61-4-12.24,2.39-17.11,9.07-27,7.65-11.27,4.19-14.48-6.95-20.25-8.51-4.41-18-7.44-26.08-12.68-18.73-12.18-19-38.41-38.14-50.81-17.24-11.19-41.19-20.45-60.64-26.78-21.72-7.07-45.56-7.11-65.22-20.21-9.06-6-17.18-13.72-25.47-20.7-3.11-2.62-7.26-6.34-11-7.9-4.82-2-12.15,1.18-14.41-4.63Z"/>
        <path class="cls-4" d="M28.9,270.24c.41-.17,1.93,6.21,7.74,13.7,5.63,7.64,16,15.17,27.29,21,22.81,11,46.93,20.37,47,21.37a1.55,1.55,0,0,1,.64,2.14,1.62,1.62,0,0,1-2.16.66c0-1-23.62-10.5-46.56-22.19-11.29-6.11-21.75-14.12-27.22-22.2-5.65-7.92-6.75-14.5-6.75-14.44ZM401.1,464.73c.13,0-12.33-13.26-29.54-18.94-16.71-6-33.45-13-33.49-13.67a1.08,1.08,0,0,1-.45-1.49,1.13,1.13,0,0,1,1.51-.45c0,.64,16.25,7.74,33,14.17,17.26,6.11,29.62,20,28.94,20.39Zm-377-153.08c-.33.2,14.29,3.29,22.36,15,4.29,5.32,5.06,12.62,8,17.24a10,10,0,0,0,1,1.59c-16.12-9.75-32.38-20.14-33.5-17.16,1.45-3.44,31.4,19.22,50.83,29.46a163,163,0,0,0-20.06-3.8c-19.48-2.6-32.48.39-32.34.62,0,.65,13-1.45,32,1.86,19,3,43.43,11.52,67,22,23.51,9.82,44.22,26.93,65,30.64,16.65,3.18,28.05-3.06,32.25-5.69A101.68,101.68,0,0,1,201.69,423a1.59,1.59,0,0,0-1-.83c0-.17-26.7-7.75-51.2,2.54-12.45,5.08-19.76,16.53-25.49,23.77-5.65,7.61-10.49,11.67-10.33,11.86s5.28-3.67,11.28-11.1c6.07-7.11,13.6-18,25.38-22.46,22.53-8.91,47-2.45,49.3-1.66l-1.13,1.13c-3.05,3.06-6.15,6.09-9.17,9.07a1.25,1.25,0,0,0-1.06-1.32c-.18,0-5.11-.78-12.62-1.92-7.26-1.19-18.67-1.48-26.83,5.54-7.7,7.1-10.7,17.09-13.67,23.76-2.75,6.91-5.54,11-5.38,11.11S133,468.6,136,461.75c3.23-6.61,6.57-16.4,13.94-22.85,7.66-6.25,18.18-5.88,25.36-4.58,7.35,1.24,12.43,2.16,12.62,2.12h.23c-6.46,6.39-12.47,12.51-16.76,18.12-6.7,8.43-9.52,15.11-9.37,15.14s3.49-6.22,10.43-14.27S190,437.93,200.29,428q2.32-2.2,4.56-4.51c2.51,2.58,9.8,11.49,7.75,22.89-1.87,13.33-12.46,22.82-12,22.92-.15.23,10.87-9,13.16-22.74,2.44-11.94-5.21-21.57-7.76-24.25a97,97,0,0,0,13.69-18,2.39,2.39,0,0,0,1.41,1.38c.46-.3,9,3.6,21.93,11.71,7.78,5.18,18.43,7.65,29.78,8.11a1.75,1.75,0,0,0,.22,2c0,.12,5.05,6.84,15.83,10.53,10.63,3.81,25.22,4.12,39.39,4.75s28.52,2.65,37.1,9,10.86,13.61,11.3,13.26c0,.18-1.74-7.49-10.47-14.36s-23.59-9.56-37.76-10.38S299.79,438.7,290,435c-8.6-3.12-12.9-8-14-9.36a116.87,116.87,0,0,0,21.26-1.84c19.49-2.51,39.23-1.52,53.26,3,14.07,4.18,22.73,9,23,8.59.09-.14-8.26-5.61-22.39-10.42-14.07-5.17-34.42-6.73-54.18-4.63-41.15,10.55-71.68-22.55-74.21-19.25a2.68,2.68,0,0,0-1.24-.12,44.54,44.54,0,0,0,2.08-5A54.57,54.57,0,0,0,227,377.44a1.72,1.72,0,0,0-1.75-1.79,1.82,1.82,0,0,0-1.8,1.75,52,52,0,0,1-3,17.41q-.48,1.5-1.12,3l-.06-.08a3.31,3.31,0,0,0-4.43-.84c-.22-.4-10.68,9.56-29.41,6.32-18.69-2.78-39.91-19.29-64.31-29-11-4.61-22.28-8.79-33.11-12.19a2.26,2.26,0,0,0,.72-.79,1,1,0,0,0,.79-1.4,1.38,1.38,0,0,0-1.45-.83c-1,4.33-13.19-2-26.87-10.14.7.09,1.12,0,1.06-.05a.81.81,0,0,0,.81-.93,1,1,0,0,0-.91-.8c0,.1-3.74.6-6.32-4.08-2.87-4.19-3.77-11.55-8.42-17.15-8.65-11.87-23.62-14.5-23.34-14.24Zm80.8,101.11c-.06,0,4.06-5,12.67-9.09,8.55-4.38,21.93-4.91,34.11-1.66,12.28,3,23.88,7.88,32.84,10.62a92.41,92.41,0,0,0,15.31,3.78,1.58,1.58,0,0,1,1.29,1.78,1.52,1.52,0,0,1-1.77,1.29,93.44,93.44,0,0,1-15.72-4.12c-9.06-2.95-20.54-8-32.48-11.21-11.88-3.43-24.64-3.27-33.1.64-8.52,3.61-12.93,8.31-13.16,8Zm154.26,75c.31.11-1.51-22.38-12.73-41.5-4.74-10.42-15.79-13.77-23.29-17.44-7.76-3.49-12-8-12.07-8.14a1.33,1.33,0,0,1,.06-1.95,1.44,1.44,0,0,1,1.94.05c.06.15,3.71,4.22,11.19,7.76,6.94,3.46,19.25,7.79,23.87,18.75,11,19.78,12.1,42.6,11,42.46Zm50.76-.57c-.42.13-1.27-7.62-7.49-17-6-9.45-17.4-19.55-30.28-27.15-12.67-7.83-27.58-11.55-37.82-17.23-10.5-5.34-15.65-12.23-15.65-12.46a1.78,1.78,0,0,1,.37-2.63,2,2,0,0,1,2.63.38c0,.2,4.35,6.34,14.31,11.68,9.65,5.62,24.58,9.61,37.56,18,12.93,8,24.36,18.68,30.12,28.63,6,9.89,6.34,17.86,6.26,17.78Zm65.22-124.81a12.21,12.21,0,0,1-3.55-4.14,8.38,8.38,0,0,1-.91-5.44.14.14,0,0,1,.18-.13.19.19,0,0,1,.14.21,8.2,8.2,0,0,0,.79,5.26,15.71,15.71,0,0,0,3.34,4.24ZM351.83,382c-.4.22-8.15-15.34-7.66-15.73a.26.26,0,0,1,.16-.34.29.29,0,0,1,.35.18c-.5.35,7,15.95,7.15,15.89ZM379,396.17c-.09-.09-11.36,6.42-22.45,13.6-11,7.58-24.55,10.39-24.89,9.64a.78.78,0,0,1-.85-.76.86.86,0,0,1,.79-.87c.24.72,13.2-1.73,24.37-9,11.18-6.89,22.8-13.13,23-12.61Zm25,9.33c.15.15-10.28,8-22.47,12.83A94.58,94.58,0,0,1,356,424.61a.76.76,0,0,1-.87-.71.85.85,0,0,1,.75-.89,96.62,96.62,0,0,0,25.24-5.73c12.16-4.48,22.75-12,22.88-11.77ZM18.77,298.59c0,.09,28.27,5.88,53.56,20,25.38,13.45,50.35,28.32,51,28.24a1.78,1.78,0,0,0,2.41-.74,1.8,1.8,0,0,0-.75-2.43c-.59.11-25.62-14.36-51.5-27.33C47.68,302.68,18.79,297.68,18.77,298.59Z"/>
        <path class="cls-5" d="M145.59,370.78c-58.1-58.45-48.92-106-26.32-165.88-2.81,47.12,14.18,95.82,50.78,132.64,55.71,56.05,159.34-32.39,197.47,29.87,1.15,1.88-.53,9.12,13.37,14.81,0,0,17.23,8.56,17.16,8.63C333.19,455.32,203.69,429.23,145.59,370.78Z"/>
        <path class="cls-2" d="M169.88,321.63c-8.58,6.61-5.29,10.56-7.41,19.86-2.85,12.53-9.59,8.4-19.29,9.29s-11.14,8.84-19.06,12.1c-6.34,2.6-7.27-.27-12-2a14.05,14.05,0,0,0-3.37-4.31c-2.53-.84-5.15,1.47-7.66,1.53-13.5.31-10.06-.65-16.88-11.57-2.81-4.5-6.18-4.42-9.41-7.73-4.69-4.81-2.51-4.44-3.51-10.15-.68-3.85.37-6.84-1.9-10.62s-6.36-4.79-8.61-9.36-1.64-9.37-3.09-14c-1.28-4.13-4.81-7.42-5.56-11.67-1.41-8,5-12.51,5.45-20,.5-9.25-9.4-16.35-10.51-26.22-.76-6.79.66-15,1.53-22,.51-3.91,1-8,2.46-11.67,1.34-3.23,6-6.83,6.81-9.44,1.91-6.27-3.45-14.07-2.67-22.24a113.65,113.65,0,0,1,5-23c2.61-8.06,8.62-13.17,11.55-19.85,3.78-8.61,2.1-15.43,16.37-13.41-1.51-8.39.07-20.37,8.19-25.55,10.56-6.75,22-2.32,31.17-13,1.41-1.62,1.41-4.47,3.05-5.94,2.23-2,6-1,7.71-2.49,4.5-4.06,3.63-6.77,5.63-12.15,4-10.7,12.34-16.33,21.07-22.15,8.34-5.56,8.28-15.31,17.83-20.73a88.9,88.9,0,0,1,15.11-6.93c6.89-2.31,10.86.75,16.75-.45,5.41-1.09,5.62-8,13.6-5.23,6.64,2.27,6.09,8.92,11.62,10.7,2.75.88,10.79-2.41,15.19-1.1,6,1.76,9.38,5.27,12.27,10.46,8.37-4.41,16.42-2.44,24.43,1.78,9,4.75,10,12.82,17.9,18.82,9.8,7.45,36.78,22.41,27.92,37.05-3.73,6.17-12.28,10.36-16.87,16.79-8,11.16-8,11.59-22,10.57-19.77-1.46-45.9,5.86-61.73,17.72-14.47,10.85-25.11,22.23-33.4,38.38-8.12,15.82-9.09,35.41-11.31,52.82-1.21,9.53-4.91,18.51-6.69,27.72s-1.43,19-4.25,28.1c-2.92,9.4-7.84,17-8.69,27.11-.77,9,2.09,19.27-.92,27.85Z"/>
        <path class="cls-2" d="M373.05,301.62a184.61,184.61,0,0,1,19.08,23.09c7.87,11.42,8.48,21,10.73,33.61,1.24,6.91,3.5,8.42,8.34,12.33,1.68,1.36,4.17.64,6.25,2.67s1.77,5.31,2.8,7.78c4.92,11.76,9.46,19.29,23.42,15.3,10.24-2.91,20.41-8.61,29.91-13.15,10.81-5.17,19.44-11.38,24.71-22.32,4.61-9.55,6.84-18.62,12.27-28.12,5.09-8.87,8.53-18.57,13.95-27.14,10.44-16.53,29.08-34.2,23.94-54.6-1.34-5.29-4.8-10.36-6.07-15.75-1.41-6,.68-9.48.36-15.14-.89-15.45-18.36-9.29-17.92-24.34.17-5.92,1-9-.49-14.54-1.72-6.31-6.71-8.69-9.4-13.16-6.53-10.86-2-22.53-5.57-32.58.28.8-4.33-4.05-4.44-4.26-1.09-1.92-1.07-5.64-2.23-7.93-.27-.51-4.35-2.66-5.09-3.56-1.35-1.61-.81-5.05-2.58-7.16-1.25-1.49-4.63-1.54-6.17-3-2.06-1.92-1-5.14-3.11-7-1.66-1.45-5.49-1-6.65-2.44-2.63-3.15-1.82-6.41-3.69-9.56-5.35-9-10.15-3.17-18.33-5.77-7-2.2-9.32-10.35-16.09-13.67-5.9-2.91-13-2.91-19-5.4-7.09-3-10.77-10.81-17.91-12.71-5.11-1.37-16.39,1.21-21.38,2C374,56.6,367.4,61.54,359.1,64.83c-14.93,5.92-25.72,12.6-26.21,29.91-.48,17.15,6.28,32.82,11.15,48.94,5.32,17.63,10,37.6,11.6,55.88.64,7.53-.51,15.72,1.25,23,2.09,8.66,6.6,18,9.85,26.27,5.32,13.55,14.48,35.26,10.53,50.2Z"/>
        <path class="cls-6" d="M167.7,319.4c-8.46,6.6-5.26,10.49-7.42,19.72-2.88,12.43-9.45,8.39-19,9.34s-11,8.84-18.76,12.11c-6.24,2.63-7.11-.21-11.78-1.92a13.16,13.16,0,0,0-3.26-4.24c-2.47-.82-5.05,1.49-7.52,1.57-13.23.4-9.86-.59-16.46-11.34-2.71-4.43-6-4.32-9.16-7.58-4.56-4.74-2.43-4.38-3.36-10-.63-3.81.42-6.78-1.78-10.51s-6.21-4.68-8.36-9.18-1.56-9.27-2.94-13.86c-1.22-4.07-4.65-7.31-5.35-11.51-1.34-7.95,5-12.42,5.49-19.84C58.62,253,49,246,48,236.27c-.7-6.73.76-14.91,1.67-21.77.52-3.87,1-7.92,2.5-11.57,1.33-3.19,5.94-6.8,6.74-9.39,1.91-6.23-3.27-13.92-2.45-22a113.91,113.91,0,0,1,5.12-22.78c2.61-8,8.55-13.11,11.46-19.74,3.78-8.57,2.18-15.31,16.14-13.42-1.41-8.29.23-20.17,8.21-25.36,10.41-6.76,21.58-2.46,30.65-13.07,1.38-1.63,1.4-4.44,3-5.92,2.2-2,5.92-1,7.57-2.51,4.45-4.06,3.61-6.73,5.62-12.07C148.2,46,156.43,40.41,165,34.58c8.21-5.57,8.23-15.23,17.62-20.68a88,88,0,0,1,14.86-7c6.77-2.32,10.63.66,16.42-.56,5.31-1.13,5.57-7.92,13.37-5.28,6.49,2.19,5.89,8.78,11.3,10.5,2.7.85,10.6-2.45,14.91-1.21,5.82,1.71,9.14,5.15,11.95,10.27,8.23-4.43,16.11-2.53,23.91,1.59,8.76,4.63,9.69,12.61,17.4,18.5,9.55,7.31,35.88,21.93,27.08,36.49-3.7,6.13-12.09,10.36-16.65,16.77-7.9,11.1-7.89,11.53-21.63,10.62-19.36-1.29-45,6.13-60.63,18-14.25,10.84-24.75,22.19-33,38.25-8.08,15.73-9.17,35.14-11.48,52.4-1.26,9.45-5,18.36-6.77,27.5s-1.54,18.87-4.38,27.86c-2.92,9.33-7.81,16.9-8.71,26.89-.81,9,1.91,19.08-1.11,27.6Z"/>
        <path class="cls-7" d="M375.5,300.89a183.27,183.27,0,0,1,18.64,23c7.69,11.35,8.3,20.89,10.49,33.4,1.22,6.86,3.42,8.36,8.15,12.25,1.64,1.36,4.07.64,6.1,2.66s1.73,5.28,2.74,7.74c4.8,11.67,9.24,19.17,22.85,15.22,10-2.91,19.91-8.54,29.18-13,10.54-5.15,19-11.3,24.11-22.17,4.47-9.48,6.65-18.48,11.94-27.92,5-8.82,8.31-18.45,13.58-27,10.17-16.41,28.37-34,23.34-54.21-1.31-5.26-4.7-10.31-5.94-15.66-1.38-5.93.67-9.41.36-15-.9-15.35-17.93-9.25-17.51-24.19.15-5.88,1-8.9-.5-14.44-1.68-6.26-6.56-8.63-9.18-13.08-6.37-10.79-1.94-22.39-5.45-32.37.28.8-4.22-4-4.33-4.24-1.07-1.9-1-5.6-2.18-7.88-.26-.51-4.24-2.65-5-3.54-1.32-1.6-.78-5-2.52-7.12-1.22-1.46-4.54-1.54-6-3-2-1.91-.95-5.11-3-7-1.61-1.44-5.35-1-6.51-2.44-2.56-3.13-1.77-6.35-3.59-9.48-5.23-9-9.9-3.15-17.9-5.74-6.78-2.2-9.11-10.28-15.71-13.6-5.76-2.88-12.73-2.89-18.53-5.37-6.92-3-10.51-10.75-17.48-12.65-5-1.36-16,1.19-20.86,2-8.47,1.41-14.92,6.32-23,9.59-14.57,5.86-25.1,12.49-25.56,29.68S342.32,128,347.08,144c5.22,17.51,9.82,37.37,11.37,55.53.63,7.48-.49,15.61,1.23,22.88,2,8.6,6.44,17.83,9.63,26.09,5.21,13.48,14.16,35,10.31,49.89Z"/>
        <path class="cls-8" d="M143,111.53c54.66-64,115.58-53.88,172.83-15.65-47.19,1-109.39,9.4-143.11,48.87C121.43,204.83,229.28,298.83,161.92,327,140.35,336,38.27,234.16,143,111.53Z"/>
        <path class="cls-9" d="M286.75,57.17c3.46,3.35-55.58,50.3-53,53.18a1.2,1.2,0,0,1-1.64.23,1.12,1.12,0,0,1-.22-1.63c-2.08-3.45,57.4-49.29,54.88-51.78ZM61,237.19c-.14-.35,7.81-2.31,17.84-9,10.15-6.51,22.08-17.38,34.78-27.55s27.25-19,40.2-20.25a45.53,45.53,0,0,1,21.34,2.39,1.94,1.94,0,0,1,1.21,2.57,2.09,2.09,0,0,1-2.57,1.23,42,42,0,0,0-19.56-2.5c-11.89.87-26.21,9-38.88,18.81s-25.13,20.42-35.7,26.62C69.24,235.91,61,237.38,61,237.19Zm62.8,96.27c.21,0,.62-6.72.34-16.84S123,293,124,279.67c.82-13.38,5.27-26.23,11.07-34.37a66.82,66.82,0,0,1,11.26-12.59,1.72,1.72,0,0,0,.12-2.38,1.63,1.63,0,0,0-2.37-.13,69.31,69.31,0,0,0-11.59,13.38c-6,8.66-10.36,22.26-10.87,35.92-.73,13.64.68,27.1,1.23,37.16s.72,16.78,1,16.78ZM93.17,314.68c.15.1,3.17-5.12,6.41-13.55s7-19.81,11.44-30.9,10.25-21.64,16.42-28a35.48,35.48,0,0,1,12.06-8.52,1.63,1.63,0,0,0,.72-2,1.38,1.38,0,0,0-1.95-.71,38.33,38.33,0,0,0-12.82,9.37c-6.43,6.84-12.21,17.82-16.4,29.11s-7.59,22.81-10.57,31.27-5.54,13.83-5.31,14Zm-9.1-21.3c.14.11,4.33-5.32,9.62-14.12s11.71-20.9,20-31.68c7.71-11.29,15.89-22.57,24.12-28.14,8.58-5,15.28-8.4,15.23-8.85a1.64,1.64,0,0,0,.39-2.37,1.77,1.77,0,0,0-2.38-.4c0,.47-5.79,3.45-15,9-8.94,6.31-16.86,18-24.28,29.28-8.16,11.22-14.15,23.57-19.18,32.45s-8.71,14.63-8.47,14.79ZM71.81,265.82c-.27,0,6.72.94,13.63-5.5,6.92-6.07,12.1-17.2,18.23-27.17,6.62-9.66,15.38-17.94,23.22-21.91a58.82,58.82,0,0,1,13.88-5.38,1.56,1.56,0,0,0,1.05-1.85,1.43,1.43,0,0,0-1.81-1,61.9,61.9,0,0,0-14.45,5.86c-8.19,4.36-17.08,13.07-23.66,23.18-6,10.39-10.79,21.34-17.25,27.46-6.33,6.42-13,5.93-12.84,6.34ZM291.54,76.08a120.45,120.45,0,0,0-12.61,10.79c-5.92,5.83-11.67,11.89-11.77,12a.51.51,0,0,0,0,.73.51.51,0,0,0,.73,0c.11-.1,5.76-6.23,11.54-12.19s12.21-11.15,12.1-11.3Zm-19-28c.41.67-31.56,15-41.71,21.18,1.38-2.09,2.72-4.25,4-6.45C245.18,45.53,251.3,26.49,251,26.44S244,45,233.33,61.84C223,78.84,208.62,92.77,208.42,93a1.29,1.29,0,0,0,0,1.78,1.22,1.22,0,0,0,1.74,0,183,183,0,0,0,18-21.58.82.82,0,0,0,.63-.14c-1.12-2.35,44.65-23.42,43.78-25ZM232.07,16.53c-.12-.18-9.13,7.59-15.87,17.45A98.31,98.31,0,0,0,205.3,54.12a287.53,287.53,0,0,0,0-30.9c-.85-.06.11,23.82-3.54,47.18-2.17,11.49-5.58,23.23-5.18,32.56.06,9.43,4.1,15.26,4.26,15.26a1.41,1.41,0,0,0,2.06.39,1.57,1.57,0,0,0,.39-2c-.14,0-3.74-4.84-4-13.69-.55-8.8,2.54-20.31,4.51-32.15.66-5,1.11-10,1.41-14.74l.17.08a.77.77,0,0,0,1-.44,98.16,98.16,0,0,1,10.75-21.06c6.44-9.91,15.13-17.91,15-18ZM187.81,43.43c.64-.25,6.34,21.47,5.62,43.9-.12,11.16-1.67,22.36-4.11,30.55a46.16,46.16,0,0,1-6,13.3,1.29,1.29,0,0,1-1.88.38,1.46,1.46,0,0,1-.39-1.93,44,44,0,0,0,5.83-12.49,92.65,92.65,0,0,0,2.86-12.33,26.26,26.26,0,0,1-6.53-6.52,64.86,64.86,0,0,1-8.85-17.91c-2.18-6.91-3.4-14.11-3.19-19.53s1.73-8.85,1.77-8.79a34.9,34.9,0,0,0-1.07,8.79c0,5.33,1.4,12.4,3.69,19.13a64.15,64.15,0,0,0,9,17.31,25.88,25.88,0,0,0,5.53,5.57,135,135,0,0,0,1.42-15.57c1.22-22.16-3.76-43.86-3.67-43.85Zm-59,46.84c0-.27,5.12,2.52,8.84,9.81,4,7,7.32,17.22,10.6,27.34,1,3.13,2,6.27,3.06,9.31a27,27,0,0,1,2-7.27c2.84-7.67,9.13-16.48,9.35-27.09.7-10.4-2-20.77-3.24-28.55C158,66,157.91,60.69,158.08,60.69s.65,5.22,2.4,12.93c1.57,7.68,4.55,18,4.08,28.85,0,11.08-6.43,20.62-8.94,27.84-3,7.41-1.68,12.44-1.53,12.5a1.25,1.25,0,0,1-.23,1.05,74.59,74.59,0,0,0,4.87,10.69c3.78,7.36,8.94,8.18,9,7.92a1.44,1.44,0,0,1,1.19,1.37,1.25,1.25,0,0,1-1.45,1.27c-.16.5-7.29-1.52-10.84-9.36a63.44,63.44,0,0,1-3.29-7,1.38,1.38,0,0,1-.21.17,19.82,19.82,0,0,1-13,3.56c-8.54-.87-16.2-9-22.16-16.92-6.06-8.09-11.41-16.61-16.16-22.4a55.84,55.84,0,0,0-8.8-8.78c.05-.16,4.62,2.33,9.55,8.15s10.64,14.08,16.82,21.95,13.68,15.2,21,15.71a17.61,17.61,0,0,0,11.37-3.37,1.21,1.21,0,0,1,.77-.18c-2.16-5.73-4.08-12.21-6-18.62-3-10.19-6.12-20.37-9.71-27.42a27.8,27.8,0,0,0-7.93-10.29ZM230.66,37.36c-.23,0-1.15,8.3-1.66,16.67a54.86,54.86,0,0,1-3.35,16.41.56.56,0,0,0,.31.69.49.49,0,0,0,.66-.29,54.88,54.88,0,0,0,3.12-16.76c.32-8.4,1-16.7.92-16.73Zm32.47,20.42c-.23-.12-4.52,11.63-11.87,21.68a94.76,94.76,0,0,1-17.15,18.07.82.82,0,0,0-.11,1.11.76.76,0,0,0,1.08.1A94,94,0,0,0,252.17,80.1C259.37,69.75,263.32,57.8,263.14,57.79Z"/>
        <path class="cls-10" d="M517.63,184.51c.24.7-20.45-.72-38.18,8.48-9,4.24-15.3,11.93-19.56,18.12a70.66,70.66,0,0,1-8.24,10,1.2,1.2,0,0,1-1.74,0,1.3,1.3,0,0,1,0-1.77,69.06,69.06,0,0,0,8.14-9.58,70.8,70.8,0,0,1,7.38-8.89,1.29,1.29,0,0,1-1-.62,22.11,22.11,0,0,1-3.54-13.33c.18-4.75,2.18-9.83,5.25-14.63a.87.87,0,0,1,0-.48c.32-.11,3.59-13.61,9.82-26,6.13-12.78,18.25-20.53,18.26-20.21.21.1-11.48,8.11-17.19,20.76A145.5,145.5,0,0,0,469.38,167l.15.06a1,1,0,0,1,.29.14,59.26,59.26,0,0,1,5-5.37c15.07-14.79,31.83-20.75,31.91-20.1a102.65,102.65,0,0,0-30.62,21.39,57.76,57.76,0,0,0-4.54,5c3.16,1.66,9.62,4.59,16.8,4.41,10-.23,19.09-5,19.17-4.58,0-.07-8.91,5-19.16,5.46-7.55.35-14.37-2.68-17.57-4.32-4.47,5.86-7.48,12.31-7.56,17.85a19.8,19.8,0,0,0,3.35,11.84,1.21,1.21,0,0,1,.18.67,42.07,42.07,0,0,1,11.87-8.1c18.5-9,39.21-6.87,39-6.93Zm-70.52,194c-.29-.14,2.6-5.52,5-14.25s4.12-20.74,4.71-32.89c1.08-12.07-2-23.87-3.84-32.94a100.71,100.71,0,0,1-2.23-15.69,1.44,1.44,0,0,1,1.4-1.58,1.59,1.59,0,0,1,1.63,1.45,97.22,97.22,0,0,0,2,15.3c1.66,8.91,4.61,21.25,3.23,33.61-.86,12.19-2.77,24.36-5.71,33.08s-6.09,14-6.17,13.91Zm72.78-175.05c0-.2-12,4.73-24.64,5.44-6.22.41-12.86-.75-16-4.15a11,11,0,0,1-2.87-6.92.82.82,0,0,0-.85-.72.77.77,0,0,0-.72.86,12.28,12.28,0,0,0,3.41,7.81c3.74,3.84,10.77,4.78,17.08,4.23,12.91-1,24.71-6.36,24.57-6.55Zm-35,111.63c-.4.57-7.51-5.6-7-6.23a.14.14,0,0,1,.05-.2.18.18,0,0,1,.21,0c-.56.6,6.35,6.78,6.71,6.38Zm-13.24,36.06a22.39,22.39,0,0,1-4.68-4.76,20.08,20.08,0,0,1-2.68-6.25.2.2,0,0,1,.15-.24.24.24,0,0,1,.26.17,19.91,19.91,0,0,0,2.5,6.16c1.81,2.82,4.56,4.81,4.45,4.92Zm-.8,24.81a43.47,43.47,0,0,0,5.91-13.11c2.52-8.37,2.94-20.16,1.64-31.66-.94-11.83-6.48-22.39-8.26-30.72-2.21-8.33-1.1-13.92-1-14a1.52,1.52,0,0,0-1.14-1.67,1.36,1.36,0,0,0-1.68,1.15c-.18.14-1.27,6.61,1.22,15.21,2,8.65,7.68,19,8.81,30.3,1.55,11.35,1.43,22.86-.71,31.15s-5.16,13.23-4.83,13.39Zm28.47-23.56c-.15.06-1.72-4-3.85-13.36a142.15,142.15,0,0,1-3-19.11.57.57,0,0,1,.54-.63.61.61,0,0,1,.65.55,146.22,146.22,0,0,0,2.68,19c1.89,9.34,3.18,13.49,3,13.54Zm7.38-22.73c.37-.27-4.5-7.58-17-21.92a204.09,204.09,0,0,1-22.15-31.1,1.23,1.23,0,0,0-1.64-.44,1.15,1.15,0,0,0-.42,1.6,196.76,196.76,0,0,0,22.94,31c12.82,14.09,18.07,20.93,18.24,20.84ZM517,313.55c.31-.37-6.71-1.94-18.32-13.63-5.8-5.8-10.69-12.54-12.82-18.23a17.91,17.91,0,0,1-1.12-9.9,1.15,1.15,0,0,0-.89-1.18.94.94,0,0,0-1.14.85,19.8,19.8,0,0,0,1.39,10.92c2.38,6,7.56,12.84,13.56,18.58,12,11.58,19.3,12.67,19.34,12.6Zm.1-17.16c.11-.08-10.28-18.41-10.86-18.25a.34.34,0,0,1,.09-.47.32.32,0,0,1,.45.08c.6-.13,10.77,18.42,10.33,18.64Zm12.73-27.93c0,.26-9.76-1.88-19.62-1.34a54.61,54.61,0,0,0-11.52,1.8l1,.79c19.21,15.1,30.87,17.16,30.51,17.79.08.15-11.86-1.13-31.82-16.08q-1.21-.85-2.38-1.75c-3.07.93-5,1.76-5.1,1.77a.65.65,0,0,1-.81-.35.6.6,0,0,1,.36-.8c.05,0,1.75-.69,4.44-1.49-18.34-14.62-27.53-35.93-27.43-36.12a1.47,1.47,0,0,1,.76-2,1.57,1.57,0,0,1,2,.77c-.07.21,8.87,21.89,27.29,36.61a55.1,55.1,0,0,1,12.58-1.8,74.41,74.41,0,0,1,19.66,2.2Zm14.55-9.74c.05-.83-15.64.86-34.46-2.68-9.37-1.79-18.11-6.47-22.13-12.32a26.8,26.8,0,0,1-4.7-10.51,64.62,64.62,0,0,0,12.51,5c0,.64,0,1,.11,1a.5.5,0,0,0,.53.52.57.57,0,0,0,.54-.56c-.06,0-.11-.24-.11-.68q1.34.34,2.72.62a74.41,74.41,0,0,0,38.35-3.46c0-.92-17.17,5.93-38,1.63q-1.49-.33-2.93-.74a20.44,20.44,0,0,1,6.55-12.19A42.47,42.47,0,0,0,516.2,223c0-.24-5.6,1.13-12.14.7,6.23-5.64,13.94-9,13.76-9.21a54.81,54.81,0,0,0-14.7,9l-.1.08a31.13,31.13,0,0,1-3.45-.51c-9-1.28-12.19-10.33-11.8-10.3a.56.56,0,0,0-.67-.35.49.49,0,0,0-.33.65c-.5-.06,3.27,9.67,12.64,10.71,1,.18,1.94.31,2.9.39a21.3,21.3,0,0,0-6.47,12c-18.75-5.69-31.78-20.54-32.13-20.2a1.35,1.35,0,0,0-1.87.1A1.3,1.3,0,0,0,462,218c.24-.28,7.57,7.75,19.22,14.22a1.2,1.2,0,0,0-.49,1.28,29.47,29.47,0,0,0,5.36,11.6c4.51,6.32,14,11,23.55,12.65a138.4,138.4,0,0,0,34.8,1Zm-93.89,73.89c.6.62,5.75-6,5.37-6.39a.13.13,0,0,0-.06-.18.14.14,0,0,0-.18.05c.37.36-4.6,7-5.13,6.51Zm-7.77,41.73s-1.5-6.25-3-12.56a37.14,37.14,0,0,1-.72-13.1.35.35,0,0,1,.43-.33.42.42,0,0,1,.35.47,37.62,37.62,0,0,0,.5,12.85c1.31,6.3,2.58,12.64,2.4,12.67Zm-20.64-26.67a43.13,43.13,0,0,0,10.47-6.53,48.57,48.57,0,0,0,8.27-9q-.36,1.22-.77,2.44c-5.36,16.74-12.24,33.05-11.66,33.25,0,0,7.35-16,13.15-32.78,6.2-17,4-35.51,3.75-35.66a1.06,1.06,0,0,0-1.22-.93,1.13,1.13,0,0,0-1,1.24c.23.15,2.37,15.88-2.11,31.79a.36.36,0,0,0-.12-.12.4.4,0,0,0-.54.1,49.35,49.35,0,0,1-8.16,9.29,65.15,65.15,0,0,1-10.11,6.95ZM364.48,68a341,341,0,0,1,35.16,50.06c7.35,13.4,13.58,28.25,12.65,40.68-.84,12.94-10.29,18-10,17.86a1.8,1.8,0,0,1-2.65-.53,2,2,0,0,1,.53-2.63c-.11,0,7.68-3.76,8.65-15,1.1-11-4.51-25.76-11.52-39.11C382.91,92.49,363.69,68.55,364.48,68Zm72.34,15.38c-.88-.55-7.86,17-6.14,35.47a123.56,123.56,0,0,0,3.46,24.17q-1.84-4.66-3.8-9.29c-8.52-19.53-21.67-35.84-28.93-49.65a12.41,12.41,0,0,0,9-5.68c3.87-5,4.33-11.41,4.15-11.35,0-.07-.68,6.24-4.57,11A11.81,11.81,0,0,1,401,83.4c-7.57-13.55-9.24-23.91-9.73-23.78-.22-.05.81,10.78,8.07,25C406.13,99,419.09,116,426.89,135.15c7.75,19.47,14.33,39.58,14.88,55.12,1,15.65-4.46,24.78-4.71,24.84a2.79,2.79,0,0,0,1,3.54,2.48,2.48,0,0,0,3.56-1c.34,0,6.3-11,4.91-27.61-.56-10.29-3.55-22.1-7.72-34.22a1.08,1.08,0,0,0,.36-.08,1.16,1.16,0,0,0,.66-1.48c-.33-.11-6.59-17.29-7.61-35.43-2.1-18.25,4.21-35.56,4.54-35.38ZM424.47,69.47c.27,0-1.66,10.92-2.51,21.9a89.44,89.44,0,0,0,1.16,22.09.7.7,0,0,1-.57.8.65.65,0,0,1-.78-.55A87.71,87.71,0,0,1,421,91.29a185.91,185.91,0,0,1,3.47-21.82ZM386,64.34a38.22,38.22,0,0,0,4,9.58,27.07,27.07,0,0,0,7.15,7.74.31.31,0,0,0,.44-.07.35.35,0,0,0-.08-.47,26.65,26.65,0,0,1-7.11-7.45c-2.77-4.38-4.23-9.39-4.37-9.33Zm-8.49-1.64c-.36.22,19.5,28.89,34.25,60.44,7.37,15.67,13.49,32.19,14.61,45,1.72,13.28-4.86,19.29-5,19.07a2.34,2.34,0,0,0-.19,3,2,2,0,0,0,3.13.2c.4.41,8.45-8.63,6.05-22.66-1.46-13.65-8-30.24-15.82-45.91C399,90.33,378.14,62.22,377.54,62.71Z"/>
        <path class="cls-5" d="M477.08,222.47c22.42,120.66-61.16,148.17-74.21,124.34,28.87-37.34,39.17-71.08,29.69-122.11-14.44-77.7-117-26.75-96.56-96.83,1.43-4.89-6.05-41.1,6.22-41.17C386.28,86.46,459.55,128.1,477.08,222.47Z"/>
        <path class="cls-11" d="M142.76,243.76c-3.18,10,2.84,22.47,6,31.89,4.1,12.11,7,24.94,12.44,36.51,9.49,20.16,23.43,34.58,42,46.62,41.51,26.88,86.7,12.69,130-2.41,41.66-14.53,66.57-49.15,78.29-90.83,11.89-42.24-2.88-100.95-42.07-123.88-18.79-11-43.32-24.9-64.65-27.42-28.39-3.36-54.75-4.25-81.55,8-23.9,11-44.4,25.25-58,48.2-13.38,22.51-26.83,47.15-22.12,74.42Z"/>
        <path class="cls-12" d="M277.21,224.3c.42.11-1.85,8.62-2.81,21.73-1.14,13.11-.71,30.67-1,48.37-.95,17.71-1.66,35.31.67,48.21,1.93,13.15,7.78,19.61,8,19.47a2.41,2.41,0,0,1-.06,3.09,2,2,0,0,1-3.12-.06c-.47.09-7.22-8.13-8.87-21.85-2.2-13.52-1.11-31.5.23-49,.63-17.57.68-35.27,2.35-48.44C274.19,232.67,277,224.23,277.21,224.3Z"/>
        <path class="cls-12" d="M261,241c1.57-1.05,11.09,19.34,11.26,19.36a.37.37,0,0,1-.13.49.35.35,0,0,1-.47-.15C271.4,260.6,262.28,240.27,261,241Z"/>
        <path class="cls-12" d="M297.57,246.15c.25.27-7.92,6.13-14.7,13.37-7.29,7.19-8.84,17.41-8.51,17.5a.66.66,0,0,1-.7.57.6.6,0,0,1-.54-.68c-.38-.11,1.51-10.88,9.11-18A115,115,0,0,1,297.57,246.15Z"/>
        <path class="cls-12" d="M246.44,226c.3.06-1.15,6-1.15,15.14-.15,9.11,1.55,21.2,4.46,33,5.86,23.7,16.08,46.13,16.16,46.51a1.55,1.55,0,0,1-.82,2,1.52,1.52,0,0,1-2-.82c-.08-.38-10.06-23.11-15.45-47.19-2.68-12-4.06-24.32-3.55-33.54S246.34,225.93,246.44,226Z"/>
        <path class="cls-12" d="M220,255.13s7,4.31,14.24,8.51a44.23,44.23,0,0,1,12.55,11.26.48.48,0,0,1-.12.7.55.55,0,0,1-.73-.12,44.2,44.2,0,0,0-12.1-11.23C226.76,259.93,219.83,255.34,220,255.13Z"/>
        <path class="cls-12" d="M256.28,255.42c-.56-.25-9.57,19.62-9.18,20a.34.34,0,1,1-.63-.25C246.06,274.81,255.42,254.93,256.28,255.42Z"/>
        <path class="cls-12" d="M322.56,257.34c.16,0-1.15,7-5.71,16.48S304.42,295,296.43,306.4s-15.2,23.37-18.4,33.25a65.43,65.43,0,0,0-3.56,17.09,1.76,1.76,0,0,1-1.87,1.57,1.68,1.68,0,0,1-1.59-1.86,67.42,67.42,0,0,1,4-17.88c3.51-10.25,11.14-22.34,19.41-33.59s16.46-22.5,21.21-31.77S322.24,257.24,322.56,257.34Z"/>
        <path class="cls-12" d="M322.49,323.65c.35.54-12.56,7-24.51,14.82-12.76,7.66-17.06,22.12-16.55,22.31a1,1,0,0,1-1.11.66.85.85,0,0,1-.63-1.08,32.57,32.57,0,0,1,3.52-8.76c2.65-4.94,8-10.22,14.07-14.18C309.58,329.78,322.53,323.8,322.49,323.65Z"/>
        <path class="cls-12" d="M304.89,230.36c.08,0,2.28,10,4.15,20.14s1.17,20.72,1,20.88a.59.59,0,0,1-.7.55.7.7,0,0,1-.57-.73,74.63,74.63,0,0,0-.61-20.57C306.51,240.49,304.64,230.4,304.89,230.36Z"/>
        <path class="cls-12" d="M320.31,238.41c.1.08-3.89,3.55-6.41,8.11a22.83,22.83,0,0,0-2.83,9.93.36.36,0,0,1-.36.32.3.3,0,0,1-.3-.34,23.2,23.2,0,0,1,3.07-10.13A30.47,30.47,0,0,1,320.31,238.41Z"/>
        <path class="cls-13" d="M155.27,226.93c-4.85,16.91-1.44,52.57,21.29,54.47,12.13,1,16.68-8.94,22.86-17.18,3.5-4.66,3.65-7.69,10.13-9,7.33-1.46,10,3.81,16-.95,4.56-3.65,3.55-7.26,10-10.48,5.22-2.62,9.83-4,14.29-7.9,7.15-6.23,14.27-16.32,21.63-22.16,13.59-10.78,12.49,6.38,21.8,10.49,6.87,3,26-7.64,34.52-8.82,21.18-2.92,34.68-19.67,39.54-40.24,5.65-24-11.67-38.41-31.23-47.31-17.17-7.79-39.33-8.67-57.88-11.27-9.4-1.31-20.35-3.09-29.84-1.9-12,1.51-22.11,9.4-31.65,16.31-17.72,12.86-29.31,27.32-38.79,47.36-7.49,15.81-21.81,34.78-25.21,51.86Z"/>
        <path class="cls-14" d="M153.12,223.94c-4.87,16.89-1.46,52.56,21.27,54.46,12.14,1,16.68-8.94,22.86-17.18,3.5-4.66,3.67-7.69,10.13-9,7.33-1.46,10,3.82,16-.95,4.56-3.65,3.55-7.26,10-10.48,5.22-2.62,9.83-4,14.3-7.9,7.14-6.23,14.27-16.32,21.62-22.16,13.59-10.77,12.49,6.38,21.81,10.5,6.86,3,26-7.64,34.51-8.82,21.18-2.92,34.68-19.68,39.54-40.25,5.66-24-11.66-38.42-31.22-47.29-17.16-7.8-39.34-8.69-57.89-11.27-9.39-1.32-20.35-3.1-29.84-1.91-12,1.5-22.11,9.38-31.65,16.31-17.73,12.85-29.31,27.32-38.8,47.36-7.47,15.81-21.8,34.78-25.2,51.86Z"/>
        <path class="cls-12" d="M249.44,223.8c.25-.12-11.59-23.07-19.53-48-3.76-12.51-4.78-26.11-2.25-36A50.91,50.91,0,0,1,234.19,124a1.58,1.58,0,0,1,2.22-.51,1.67,1.67,0,0,1,.52,2.22,48.17,48.17,0,0,0-6.38,14.75c-2.54,9.23-1.87,22.29,1.55,34.68C239.35,199.86,250.54,223.42,249.44,223.8Z"/>
        <path class="cls-12" d="M226.08,245.24c.11,0-.66-16.15-1.39-32.48-.23-8.16.23-16.43,1.57-22.57a32.93,32.93,0,0,1,3.7-10.06,1,1,0,0,1,1.37-.37,1.11,1.11,0,0,1,.38,1.41,30.72,30.72,0,0,0-3.63,9.44c-1.38,5.89-2,14-2,22.13C226.49,229,226.76,245.28,226.08,245.24Z"/>
        <path class="cls-12" d="M206,251.55c-.25-.1,2.22-4.25,3.09-11.23,1-7-.3-16.3-.36-25.83.75-19.52,11.39-36.36,11.11-36.63a1.17,1.17,0,0,1,1.58-.5,1.18,1.18,0,0,1,.5,1.58c.25.25-10.43,16.84-11.54,35.58-.15,9.32,1,18.87-.41,25.94C208.77,247.56,206,251.61,206,251.55Z"/>
        <path class="cls-12" d="M280.52,205.46c-.55.32-9.44-21-22.94-39.41-13.22-18.8-32.56-31.72-32.84-31.83a1.46,1.46,0,0,1-.35-2,1.41,1.41,0,0,1,2-.35c.28.1,19.86,13.61,32.84,33C272.47,183.89,280.67,205.44,280.52,205.46Z"/>
        <path class="cls-12" d="M319.94,217.66c-1,.59-15.07-28.22-33.75-53.89-8.88-13.28-22.74-21.42-33.19-27.36a205.69,205.69,0,0,1-17.59-10.86,2,2,0,0,1-.47-2.77,2,2,0,0,1,2.77-.47c.19.21,6.72,4.83,17.15,10.94,10.26,6,24.77,15,33.59,28.86C306.81,188.58,319.91,217.67,319.94,217.66Z"/>
        <path class="cls-12" d="M332.71,207.51c0,.08-3.95-8.52-12.1-13-7.73-4.66-16.42-7.71-16.48-7.92a.56.56,0,1,1,.44-1c.06.21,8.69,3.36,16.46,8.27C329.25,198.59,333,207.51,332.71,207.51Z"/>
        <path class="cls-12" d="M347.34,197.39c-.09,0-13.63-17.45-28.43-34.22s-25.53-37-25.35-37.49a1.36,1.36,0,0,1,.65-1.85,1.41,1.41,0,0,1,1.85.66c-.15.47,9.86,20.41,24.38,37.44C334.8,179,347.92,197,347.34,197.39Z"/>
        <path class="cls-12" d="M337.07,150.9a52.18,52.18,0,0,1-16.4,0c-4.08-.63-8.11-2.29-10.48-4.52a10.22,10.22,0,0,1-2.9-4.62.47.47,0,0,1,.31-.64.56.56,0,0,1,.66.34,9.4,9.4,0,0,0,2.58,4.24c2.15,2.1,6,3.79,10,4.5C328.84,151.76,337.08,150.7,337.07,150.9Z"/>
        <path class="cls-12" d="M299.45,162.08c-.11,0,1.3-4.12,2-8.4a43.55,43.55,0,0,0,.27-8.67.3.3,0,0,1,.26-.29.25.25,0,0,1,.28.24,42.77,42.77,0,0,1-.43,8.79A50.24,50.24,0,0,1,299.45,162.08Z"/>
        <path class="cls-12" d="M279.58,175.06a81.39,81.39,0,0,1-12.23-6.6c-6.31-3.65-8.85-10.88-8.5-11.07a.37.37,0,0,1,.31-.48.54.54,0,0,1,.55.36c-.31.13,1.85,6.89,8,10.7C273.37,171.93,279.68,174.88,279.58,175.06Z"/>
        <path class="cls-12" d="M286.49,140.37A39.58,39.58,0,0,1,272,140a46.84,46.84,0,0,1-13.74-5.47.44.44,0,0,1-.15-.62.48.48,0,0,1,.63-.16,47.3,47.3,0,0,0,13.4,5.62C279.19,141.14,286.5,140.21,286.49,140.37Z"/>
        <path class="cls-12" d="M335.21,150.87A56.48,56.48,0,0,0,318.8,136c-9.47-6.43-20.91-7-20.95-6.33a.76.76,0,0,1-.77-.64.65.65,0,0,1,.6-.76c.19-.74,12.25.14,21.64,6.89C329.17,141.08,335.63,150.69,335.21,150.87Z"/>
        <path class="cls-15" d="M140.64,292.22c6.39,9.14,9.8,8.68,14,19.49,4.37,11.2,9.62,20.67,18,29.5,14.65,15.51,25.26,27.75,45.15,37.06,18.2,8.52,42.47,9.09,62.27,5.62,7.51-1.31,28.91-4.85,19.06-14.28-2.64-2.52-9.07-3.07-12.37-5.32-6.06-4.16-8.54-8.88-10.67-16-7-23.64-17-42.09-30.76-62.59-6.1-9.11-11.8-15-19.62-22.29-6.95-6.5-17.18-15.13-22.15-23-12-19.12,3.44-39.31,12.25-56.06,8.61-16.38,16.19-34.53,23.07-51.72,12.11-30.28-22-25.11-39.78-16.22A133,133,0,0,0,152.38,155c-12.16,16.17-24.22,37.57-26.39,58-2.52,23.81-.34,41.54,5.82,64Z"/>
        <path class="cls-16" d="M138.13,283c6.39,9.14,12.3,15.24,16.52,26.05,4.36,11.19,9.62,20.67,18,29.51,14.63,15.5,25.25,27.74,45.15,37.06,18.19,8.5,42.45,9.08,62.26,5.61,7.51-1.31,28.92-4.85,19.06-14.28-2.63-2.5-9.07-3.06-12.37-5.32-6.06-4.16-8.54-8.88-10.66-16C269,322,259,303.52,245.27,283c-6.08-9.11-11.8-15-19.62-22.28-7-6.49-17.19-15.13-22.16-23.06-12-19.12,3.44-39.3,12.25-56,8.62-16.39,16.2-34.54,23.07-51.73,12.12-30.27-22-25.1-39.78-16.22a133.08,133.08,0,0,0-46.67,38.64c-12.16,16.17-24.22,37.58-26.38,58-2.53,23.81,6.79,46.85,12.93,69.29Z"/>
        <path class="cls-17" d="M309.93,383.44c-.17-11.31,11.6-15.83,20.1-20.15,10.62-5.4,20.15-10.75,30.22-17.11,17.51-11.06,33.31-24.84,48-39.41,6-6,13.13-14.21,16.76-21.84,2.54-5.34.6-8.93,1.85-14.19.45-1.88,3.16-4.27,3.25-6.06.24-5.7-2.07-4.06-3.49-8.07-3-8.43-2.71-19.31-5.32-29-3.25-12.05-9.6-23.45-15.84-34.27-10.35-18-20.69-37.84-38.22-50.16-5.48-3.84-17.23-11.15-23.91-11.9-15.31-1.71-13.66,14.7-13.68,24.83-.09,41.33-6.63,82.33-14.2,122.49-1.83,9.64-2.4,19.69-4.44,29.5s-7.6,18.28-9.19,28c-2,12.35-11,61.88,14.73,50.74Z"/>
        <path class="cls-18" d="M227.42,294.54c-.08.14-6.15-3.78-13-6.06A28.24,28.24,0,0,0,200.32,287a.49.49,0,0,1-.54-.37.4.4,0,0,1,.36-.49c.06-.2,7.67-1.11,14.51,1.74a54.51,54.51,0,0,1,12.78,6.66ZM340.77,192.08c1.66-1.1,20.34,33.2,20.7,33.24a.6.6,0,0,1,0,.59c2.83,1.52,5.74,3.06,8.64,4.66,9.81,5.88,16,15.31,22.1,20.75a36.16,36.16,0,0,0,8.78,6.82c7.62,1.9,14.44,3.85,19.58,5.46a44.1,44.1,0,0,1-8.22-11.1c-6.59-11-10.46-27.69-19.56-41-9.68-13.07-26.14-18.85-36.46-25.55-10.86-6.36-15.79-13.49-15.6-13.52.28-.29,5.5,6.32,16.41,12.13,10.37,6.24,27.13,11.4,38,25.19,10,14,14,30.47,20.54,40.85,6,10.83,13.44,14.47,13.66,14.37a2.17,2.17,0,0,1,1,2.14.15.15,0,0,1,0,.06,1.58,1.58,0,0,1,.87,2.1,1.66,1.66,0,0,1-2.12.88c-.11-.5-11.05-4.47-25.92-8.59a1.56,1.56,0,0,1-.94,0,6.24,6.24,0,0,1-2.15-.86c-6.55-1.76-13.72-3.5-21-5a193.68,193.68,0,0,1-19.54-4.9.54.54,0,0,1-.52.21c-.07.34-3.54-.4-7.37-2.77-12.86-4.44-21.76-8.82-21.44-9.35a189.29,189.29,0,0,0,17.79,6.6,20.28,20.28,0,0,1-3.94-4.9,48.88,48.88,0,0,1-6.92-16.78c.2-.11,2.32,8.92,7.59,16.32a21,21,0,0,0,5.77,6.15,223.16,223.16,0,0,0,29.06,7.18c4.84.86,9.67,1.86,14.31,2.92a40.79,40.79,0,0,1-3.49-3.36c-6.07-5.69-12.28-15.24-21.3-20.87-9.39-5.47-19.22-10.54-25.55-15.9a46.25,46.25,0,0,1-9.41-9.91c.25-.22,3.56,4.19,10.06,9.09,4.12,3.21,9.64,6.31,15.6,9.52-3.19-5.53-18.06-33.56-19.09-33ZM439.27,195c-.13-.58-17.73,4.72-17.72,5.24a.29.29,0,0,0-.16.36.3.3,0,0,0,.38.17c0-.51,17.41-6,17.5-5.77Zm-8.45-25a82.59,82.59,0,0,1-7.87,9.11c-4.25,4.51-10.16,6.19-10.24,6a.41.41,0,0,0-.3.47.32.32,0,0,0,.42.28c.13.18,6.33-1.73,10.49-6.37a50.41,50.41,0,0,0,7.5-9.5ZM363,169.14a64.94,64.94,0,0,0,2.57,10.53,16,16,0,0,0,6.65,8.65.31.31,0,0,0,.44-.11.37.37,0,0,0-.12-.48,15.63,15.63,0,0,1-6.53-8.24c-1.87-5.06-2.85-10.41-3-10.36Zm-4,36.25c0,.15,6.11-2.28,12.53-1.81a27.2,27.2,0,0,1,12.05,3.89.44.44,0,0,0,.57-.15.38.38,0,0,0-.13-.53A27.76,27.76,0,0,0,371.62,203a29.53,29.53,0,0,0-12.56,2.38Zm-40.9,153.38c-.6-.22,12.44-17.63,31.78-27.08,18.71-10.46,40.58-12.44,40.88-12.08a1.29,1.29,0,0,1,1.38,1.22,1.38,1.38,0,0,1-1.24,1.4c-.25-.35-21.51,1.25-40.17,11.1-19.23,8.87-32.62,25.59-32.63,25.44Zm-11.28,9.06c.49.22,2.68-8.95,11-19.82,8.11-11,22.33-22.66,37.72-32.53s31.41-19.09,43-27a153.12,153.12,0,0,0,18.88-14.67,2.26,2.26,0,0,0,.11-3.24,2.34,2.34,0,0,0-3.24-.12A149.62,149.62,0,0,1,396.15,285c-11.24,8-27.09,17.41-42.35,27.82S324.28,335.38,316.43,347c-8.06,11.47-9.67,20.93-9.56,20.86ZM460.25,244.24a54.26,54.26,0,0,1-4.66,6.29,15.92,15.92,0,0,1-6.36,4.77.22.22,0,0,1-.3-.14.26.26,0,0,1,.15-.33,15.81,15.81,0,0,0,6.23-4.53c2.62-2.89,4.84-6.13,4.92-6.06Zm9.43,10.54c-.09-.22-6.19,3-12,6.72a24.82,24.82,0,0,1-13,3.86.49.49,0,0,0-.45.45.39.39,0,0,0,.42.41A25.29,25.29,0,0,0,458,262c5.77-3.84,11.65-7.24,11.67-7.24Zm-7.06,22.47c0,.17-5.5-.65-11.06-.42s-11.07,1.07-11.16,1.06a.35.35,0,0,1-.39-.29.34.34,0,0,1,.29-.39c.1,0,5.66-.76,11.25-.86a59.72,59.72,0,0,1,11.07.91Zm-62.69,66.32c-.22.19-5.37-5.94-5.11-6.23a.11.11,0,0,1,0-.17.16.16,0,0,1,.19,0c-.27.26,4.76,6.43,4.89,6.35ZM392.43,349a35,35,0,0,1-3.09-3.68,12.72,12.72,0,0,1-1.76-4.44.19.19,0,0,0-.19-.13.13.13,0,0,0-.11.17,12.54,12.54,0,0,0,1.89,4.52,21.13,21.13,0,0,0,3.26,3.56Zm-58.71,51.55c-.15.2-5-5.7-6.61-13.14-1.71-7.25-3.1-14.52-3.23-14.63a.46.46,0,0,1,.35-.55.43.43,0,0,1,.54.33c.14.11,1.44,7.48,3,14.69a35.55,35.55,0,0,0,6,13.3Zm.3-120.4a50.1,50.1,0,0,0,15.59,5.55,121.5,121.5,0,0,0,13.71,1.63c-18.51,13.54-34.84,28.15-34.75,28.29.39.51,18.58-14.75,38.1-28.14,19.36-14,42.07-21.27,42.53-20.81a1.52,1.52,0,0,0,1-1.83,1.43,1.43,0,0,0-1.8-1c-.53-.47-23.81,7.42-42.95,21.94l-.89.64A134.23,134.23,0,0,1,349.73,285c-8.22-1.23-15.67-5-15.72-4.84Zm10.54-50.57a30.55,30.55,0,0,1,9.42-.7,86.22,86.22,0,0,1,9.47,1.64.32.32,0,0,0,.36-.23.3.3,0,0,0-.24-.35,76.19,76.19,0,0,0-9.56-1.49,23.27,23.27,0,0,0-9.45,1.12Zm-142,26.73a25.73,25.73,0,0,0-9.1,3.9c-5.14,3.11-10.85,8.81-17.52,12.89s-14.64,5.57-20.21,8a29.17,29.17,0,0,0-4.27,1.91c2.14-4.76,7.72-17.71,15.25-29.44,9.14-15.27,25.41-23.27,25.22-23.34,0-.52-16.82,7.12-26.49,22.48-9.9,14.69-16.47,31.15-16.88,31.26a1.09,1.09,0,0,0,0,.89,7.4,7.4,0,0,0-1.86,1.69.94.94,0,0,0,.12,1.41,1.08,1.08,0,0,0,1.38-.12c0-.12,1.9-2.17,6-4.09a25.64,25.64,0,0,0,10.8,2.66c6.59.49,15.24-.19,23.74-1.46,4.21-.63,8.4-1.36,12.31-2.13a21.38,21.38,0,0,1-3.08,3.4.31.31,0,0,0,0,.44.3.3,0,0,0,.43,0c.17.06,1.62-1.64,3.45-4,11.49-2.27,20.41-4.68,20.37-4.83s-8.41,1.61-19.3,3.47c3.51-4.55,7.7-10.4,7.21-10.72.32.24-4.31,6.34-7.95,10.85-4.3.73-9,1.45-13.65,2-8.47,1.08-17,1.58-23.39,1a27.11,27.11,0,0,1-8.36-1.8c5.38-2.35,13.22-3.9,19.92-8.32s12.28-10.18,17.2-13.42c4.85-3.4,8.78-4.3,8.69-4.54Zm68.41,90.88c-.17.33-6-3.72-16-6.15-10-2.63-23.8-2.82-37.67-3s-28.21-1.78-37.94-6.83a49.08,49.08,0,0,1-14.68-10.93,1.7,1.7,0,0,1,.09-2.44,1.79,1.79,0,0,1,2.45.1,46,46,0,0,0,13.56,10.41c9,4.9,22.82,6.84,36.6,7.25s27.87,1,37.94,4.12c10.14,2.89,15.74,7.4,15.64,7.45Zm-8.41,55.41c-1.32-.91,17.56-21.77,16.12-22.82a.47.47,0,0,1,.6-.2.39.39,0,0,1,.2.56c1.27,1.35-17.85,21.83-16.92,22.47Zm-30.08,3.91A38.34,38.34,0,0,1,240.14,396c4.69-4.59,9.5-9,9.51-9.15a.42.42,0,0,1,.59,0,.38.38,0,0,1,0,.56c0,.16-4.94,4.54-9.68,9a52.74,52.74,0,0,0-8.08,10.13Zm-41.18-17.78c0-.12,4.25-.42,8.34-1.53a16.66,16.66,0,0,0,7.31-4.13.29.29,0,0,1,.39,0,.25.25,0,0,1,0,.36,16.86,16.86,0,0,1-7.59,4.11,44.93,44.93,0,0,1-8.45,1.17Zm92.29-22.8c.07.26-20.68,4.09-41.9,3.56-21.38.31-41.85-7.75-41.86-8.53a1.24,1.24,0,0,1-.59-1.72,1.36,1.36,0,0,1,1.76-.62c0,.71,19.55,8.81,40.76,9,21,1,41.8-2.16,41.83-1.71Zm-21.3-11.13a23.43,23.43,0,0,0-21.47,11.7.36.36,0,0,0,.14.52.44.44,0,0,0,.56-.14,23.39,23.39,0,0,1,8.79-8.82c5.49-3.28,12-3.11,12-3.26ZM284,365.2c.24.13-16.5-15.09-38.52-18.81-10.74-2.39-21.81-.9-29.65-2-8-.9-12.44-4-12.54-4.06a1.41,1.41,0,0,0-1.84.46,1.29,1.29,0,0,0,.46,1.85c.08.09,5.23,3.43,13.64,4.2,8.35,1.05,19.13-.65,29.62,1.46,21.48,3.09,38.64,17.63,38.84,16.94Zm-30.27-47.6c.18,0-5.47-4-15.29-4.28-9.66-.57-22.38,1.77-34.92,3.58-12.51,2-25.19-.59-33.28-5.35a53.62,53.62,0,0,1-12.5-9.79,1.68,1.68,0,0,0-2.28,0,1.51,1.51,0,0,0,0,2.22,55.34,55.34,0,0,0,13.36,10.13c8.65,4.94,22.25,7.4,35,5,12.64-2.13,25.07-4.75,34.56-4.56,9.59-.15,15.22,3.34,15.32,3ZM206.06,142.26c0-.16-15.29,7.91-24.3,22.54-9.43,13.89-16.4,29.45-16.72,29.61a1.05,1.05,0,0,1-1.87-1c.31-.13,7.49-15.62,17.37-29.5,9.45-14.63,25.37-22.42,25.51-21.67Zm6.72,39s-17-.2-17.09-.91a.27.27,0,0,0-.31.23.23.23,0,0,0,.2.29c.15.73,17.21.69,17.2.39ZM216.53,158c-.24-.17-3.19,5.18-9.91,11.15s-16.82,12.44-27.38,18.21c-10.86,5.16-20.94,13.21-26,21-5.37,7.54-8.5,12.81-8.67,12.94A1.5,1.5,0,1,0,147,223c.85.34,10.45-23.68,33.25-33.74,10.45-6,20.67-12.75,27.13-19.22s9.23-12,9.11-12Zm-13.36,84.6A38.78,38.78,0,0,0,191.49,241a85.85,85.85,0,0,1-12.07-.3.34.34,0,0,1-.3-.4.4.4,0,0,1,.42-.33,87,87,0,0,0,12,.52c6.05-.15,11.74,1.94,11.67,2.09Zm-18.38-29.22c1.45.44-8.92,25.44-9.16,25.53a.42.42,0,0,1-.78-.33C175.12,238.42,185.76,213.74,184.78,213.39Z"/>
        <path class="cls-19" d="M308.17,381.45c-29.91-34-46.23-75.46-74.84-110.3-6.54-8-14.61-12.21-19.5-21.55-5.51-10.51-9.78-22.6-7.69-34.41,2.8-15.87,13.33-36.42,22.61-49.48,5.24-7.37,10.89-14.18,15.92-21.84,2.53-3.86,13.47-27.49-.46-24.66-7.68,1.56-1.51,8.89-2.82,12.9-1.92,5.92-7.49,5.09-10.7,9.74-2.24,3.25-1.8,8.9-3.85,12.79-1,1.88-2.21,3.69-3.26,5.57-1.29,1.13-2.61,2.22-4,3.26a5.1,5.1,0,0,0,.67,4.33c-3.44,7.62-8.65,15.86-13,23.15C202,199.84,199.86,207,196,216.78c-3.3,8.32-2.72,19,.79,27.27,2.36,5.59,4.87,7.47,8.71,11.67,1.76,1.91,3.87,2.28,5.28,4.83,2.1,3.81-.22,7.89,1.4,11.36,4,8.64,11.13,1.28,16.61,7.82,2.24,2.68-.34,7.76,1.14,10.84,2.24,4.67,4.7,2.66,7.21,5.62,5.38,6.34,5,11.91,11.09,17.05,3.35,2.81,5.36.6,8.7,5.93,3,4.77,2.13,9.12,6.43,13.29,2.57,2.49,5.27,1,7.91,4.13,2,2.39,2.51,7.7,4.31,10.62,3.27,5.33,9.17,11,12.16,16.3a7.18,7.18,0,0,1,3.88,2.37,6.3,6.3,0,0,1-.67,4.81,70.87,70.87,0,0,0,4.9,7c3.09,4.15,11.55,16,16.39,6.79Z"/>
        <path class="cls-20" d="M303.09,380.49c-29.53-34.23-45.37-76.27-73.58-111.38-6.46-8-14.49-12.24-19.27-21.7-5.39-10.64-9.52-22.88-7.29-34.92,3-16.2,13.79-37.24,23.25-50.66,5.33-7.56,11.08-14.56,16.21-22.42,2.58-4,13.81-28.15-.17-25.09-7.7,1.68-1.63,9.08-3,13.16-2,6-7.57,5.28-10.83,10-2.28,3.33-1.92,9.09-4,13.06-1,1.93-2.24,3.79-3.32,5.71-1.31,1.18-2.65,2.31-4,3.37a5.21,5.21,0,0,0,.62,4.4c-3.54,7.79-8.84,16.26-13.27,23.73-5.38,9.1-7.63,16.45-11.61,26.42-3.4,8.51-3,19.41.45,27.76,2.31,5.65,4.81,7.55,8.59,11.77,1.72,1.92,3.85,2.27,5.23,4.86,2.06,3.85-.32,8,1.26,11.55,3.93,8.74,11.13,1.16,16.53,7.76,2.19,2.68-.43,7.89,1,11,2.17,4.73,4.67,2.65,7.14,5.63,5.31,6.38,4.83,12.06,10.89,17.22,3.33,2.82,5.36.55,8.65,5.93,2.95,4.82,2,9.26,6.27,13.44,2.54,2.5,5.27,1,7.87,4.12,2,2.41,2.43,7.8,4.19,10.76,3.2,5.38,9,11.06,12,16.46a6.88,6.88,0,0,1,3.85,2.37,6.52,6.52,0,0,1-.71,4.89,66.05,66.05,0,0,0,4.82,7.07c3,4.19,11.37,16.12,16.32,6.71Z"/>
        <path class="cls-19" d="M312.41,383.5c-9-10-7.69-21.16-1.33-32.35,4.23-7.45,3.87-7.63,3.83-16.09-.05-7.62,2.19-8.58,5.65-14.13,1.55-2.5,2.41-2.11,3.77-5.17.77-1.71.59-7.3,1.12-9.59s2.65-3.52,3.16-6c.72-3.47-.87-7.37-.35-10.86.35-2.41,2.86-3.51,3.12-6.05.38-3.65-2.07-6-1.38-9.9.38-2.11,2.79-3.75,3.1-5.77.61-3.89-1.7-6.87-1.4-10.21.25-3,2.77-3.55,3-5.34.44-3.24.35-6.5.72-9.8.62-5.46,1-11.64,1.61-17.54.32-3.2,2.91-9.32,3.37-13.33.72-6.29-.33-12.55.79-18.88,2.14-12.07-2-20.51-.25-32.91.71-5.08.13-12.1,2.69-16.69,3-5.37,9.57-6.33,13.84-10.2-9.43-4.58-21.36,10.2-26.08,17.71-6.19,9.83-8.81,21.71-8.46,32.7.8,25-.48,49.38-2.16,74.34-1.55,23-11.28,41.87-19.12,63.07-5,13.54-8,62.33,10,68a3.56,3.56,0,0,0,1.78-3.53Z"/>
        <path class="cls-20" d="M314.76,383.17c-9.33-10.23-8-21.51-1.6-32.82,4.28-7.52,3.9-7.72,3.79-16.3-.09-7.72,2.19-8.68,5.69-14.29,1.58-2.53,2.45-2.13,3.82-5.22.77-1.74.55-7.4,1.09-9.71s2.68-3.57,3.18-6.05c.72-3.53-.93-7.49-.44-11,.36-2.44,2.92-3.54,3.17-6.12.36-3.68-2.17-6.1-1.48-10,.37-2.14,2.82-3.79,3.13-5.83.6-3.95-1.78-7-1.51-10.37.24-3.07,2.82-3.58,3.07-5.39.44-3.27.32-6.59.67-9.94.59-5.53,1-11.79,1.53-17.78.3-3.22,2.91-9.43,3.36-13.49.69-6.37-.43-12.74.67-19.14,2.1-12.24-2.18-20.82-.49-33.39.7-5.13.05-12.26,2.64-16.9,3-5.44,9.76-6.36,14.1-10.26-9.68-4.7-21.8,10.2-26.58,17.78-6.27,9.92-8.87,21.95-8.43,33.11,1,25.37-.15,50.07-1.69,75.36-1.43,23.28-11.25,42.39-19.14,63.83-5,13.7-7.73,63.15,10.74,69a3.52,3.52,0,0,0,1.78-3.57Z"/>
        <path class="cls-20" d="M177,382.18c-6.3-.94-27.74,3.15-22-10.32,2.07-4.82,10.29-4.73,13.81-8.18,5.51-5.4,1.56-22.58,10-19.09,7.57,3.13,18.12,16.27,25.41,20.65,9,5.41,10.48,11.41,20.81,12.65,24.57,2.93,47.08,3.13,71.07-1.92,11.5-2.4,16.49-9.32,27.73-13.28,11.74-4.14,24-13.37,34.8-18.93,19.26-9.86,25.39-18,40.49-34.21,13.5-14.55,31.24-31.19,33.6-50,1-8.2,8.26-16.24,15-22.12,11.81-10.26,20.82,1.16,25.62,11.26,11.38,23.93-11.15,34.4-26.48,48.36-9.29,8.46-13.22,19.4-20.36,29.52-8.1,11.49-21.87,17.18-32,27.23-1.76,1.74-4.37,6-6.46,7-3.53,1.74-7.15-1-10.09.52-4.83,2.54-8.81,12.16-11.93,16.61-9.52,13.59-21.37,16.46-33.3,26.64-5.68,4.86-10.18,3.3-19.32,1.16-2.79-.65-5-3.38-7.67-4-5-1.18-7.55,1.36-12.39,1-7.45-.55-10.24-5.32-17.37-4.4-9.59,1.23-12.38,5.13-22.51,3.29-7.1-1.3-13.17-.16-20.3-.45-7.35-.3-12.88-4.46-19.46-7.06-8.63-3.41-37.62,0-38.62-12Z"/>
        <path class="cls-21" d="M164.5,146.7c1.5-8,2.61-19.6,6.45-26.76,4.41-8.21,12.47-11.88,17.35-20.61,10.71-19.08,27.6-28.66,49.12-21.06C247,81.68,256,80.5,265.81,83c8.86,2.25,14.56,11,23.36,11.06,5.33,0,10.11-3.86,16-2.06,6.47,2,4.93,4.33,12.77,3.81a75,75,0,0,0,14.22-2.12c4.65-1.34,8.93-4.2,14-5.12,16.49-3,8.13,12.56,16.39,20.7,7.86,7.74,18.87,1.85,28.77,3.9,14.81,3.05,8.09,14.44,17.61,20.18,5.3,3.2,9.3-3,13.23,4.15,1.73,3.12-.65,11.38.38,15.38,1.64,6.45,7,7.63,9,11.77,2.23,4.54-.4,8.3,3.31,13.07,3.09,4,7.77,3.5,10.07,9.13,1.84,4.49,1.71,10.46,3.7,15.42,4.61,11.48,2.19,16.9-3.65,27.33-2.53,4.53-18.79,37.58-21.44,37.82-.32-35.35-8.63-68.84-30.1-96a140.64,140.64,0,0,0-68.77-47.49c-27.44-8.79-63.57-5.52-92.33-5.27-16.8.15-25.06-.78-38,11.92-9.53,9.35-16.95,22.14-34.06,18.65Z"/>
        <path class="cls-12" d="M218.6,84.31c.2-.09,2.42,8.86,7.59,16.34a35.11,35.11,0,0,0,13.49,11.79.63.63,0,0,1,.26.78.52.52,0,0,1-.74.25,35.66,35.66,0,0,1-13.66-12.38A51.59,51.59,0,0,1,218.6,84.31Z"/>
        <path class="cls-12" d="M235.22,86.47c.16,0,1.39,7,4.06,13.66a43.21,43.21,0,0,0,7.37,12.2.47.47,0,0,1,0,.65.42.42,0,0,1-.61-.05,43.18,43.18,0,0,1-7.3-12.57A63.78,63.78,0,0,1,235.22,86.47Z"/>
        <path class="cls-12" d="M255.32,82c.15,0-1,8.19.36,16.27.82,8.34,6.1,14.88,6.47,14.61a.54.54,0,0,1,0,.73.49.49,0,0,1-.71,0c-.44.25-5.88-6.81-6.49-15.25A53.14,53.14,0,0,1,255.32,82Z"/>
        <path class="cls-12" d="M262.71,82.15c.16,0-.69,9,2.74,17.24a33.79,33.79,0,0,0,10.3,14.06.61.61,0,0,1,.1.8.51.51,0,0,1-.76.08,34.33,34.33,0,0,1-10.38-14.66C261.41,91.16,262.57,82,262.71,82.15Z"/>
        <path class="cls-12" d="M281.1,89.88c.52.26-9,16.46-9.89,16.09a.26.26,0,0,1-.39,0,.3.3,0,0,1,0-.42C271.61,106,281.31,90,281.1,89.88Z"/>
        <path class="cls-12" d="M328.16,89.24a53.66,53.66,0,0,1-6.88,15.9,64,64,0,0,1-11.41,13.45.52.52,0,0,1-.76-.05.57.57,0,0,1,0-.77,64.08,64.08,0,0,0,11.47-13C325.56,97.57,328,89.18,328.16,89.24Z"/>
        <path class="cls-12" d="M350.42,87.79c.32,0-1.66,10.53-7,19.78A37.88,37.88,0,0,1,334.28,119a13.6,13.6,0,0,1-6.31,3,.59.59,0,0,1-.76-.51.74.74,0,0,1,.53-.78,12.36,12.36,0,0,0,5.81-2.64,37.39,37.39,0,0,0,9.07-10.93A74.8,74.8,0,0,0,350.42,87.79Z"/>
        <path class="cls-12" d="M368.92,109.61A46.91,46.91,0,0,1,362,123.9,28.41,28.41,0,0,1,349.47,134a.44.44,0,0,1-.61-.28.56.56,0,0,1,.3-.66,27.69,27.69,0,0,0,12.31-9.55C366.29,117.17,368.76,109.53,368.92,109.61Z"/>
        <path class="cls-12" d="M381,120.56c0,.16-5,.91-9.68,2.67s-9.18,4.16-9.28,4.17a.32.32,0,0,1-.43-.14.31.31,0,0,1,.15-.41c.09,0,4.63-2.32,9.41-4A49.91,49.91,0,0,1,381,120.56Z"/>
        <path class="cls-12" d="M399.15,117.92c.42,0-2.55,10.87-10.72,18.36-7.57,8-18.42,11.51-18.64,11.22a.64.64,0,0,1-.8-.48.69.69,0,0,1,.49-.82c.16.28,10.67-2.89,18.28-10.6C396,128.44,399.19,117.86,399.15,117.92Z"/>
        <path class="cls-12" d="M404.13,129.87a48.07,48.07,0,0,1-5.77,12.62c-3.71,5.92-8.09,11.38-8.14,11.51a.44.44,0,0,1-.6.07.43.43,0,0,1-.08-.6c0-.12,4.49-5.5,8.3-11.29A71.27,71.27,0,0,0,404.13,129.87Z"/>
        <path class="cls-12" d="M406.59,157.33c-.18.47-12.78-5.21-12.77-5.5a.22.22,0,0,1-.09-.29.22.22,0,0,1,.29-.09C394,151.76,406.48,157.57,406.59,157.33Z"/>
        <path class="cls-12" d="M300.79,397.36a26.24,26.24,0,0,1,.41-10.61,35.09,35.09,0,0,1,4.32-9.94.32.32,0,0,1,.45-.1.35.35,0,0,1,.11.46,34.94,34.94,0,0,0-4.42,9.68A34.46,34.46,0,0,0,300.79,397.36Z"/>
      </g>
    </g>
  </g>
</svg>
