<svg id="Capa_1" enable-background="new 0 0 512 512" height="512" viewBox="0 0 512 512" width="512" xmlns="http://www.w3.org/2000/svg"><g><g><path clip-rule="evenodd" d="m114.04 109.799h177.16l-23.806 126.489h-19.527c0 14.596-11.818 26.443-26.414 26.443s-26.442-11.847-26.442-26.443h-44.184c0 14.596-11.818 26.443-26.414 26.443-3.684 0-7.199-.765-10.373-2.126v122.522h175.006v-15.928-41.237c.227-15.22 11.506-18.876 24.43-13.887 12.413 4.761 21.171 16.722 21.171 30.893v-138.876c0-29.475 41.718-29.504 41.831-.142v-176.654c0-9.495-7.765-17.26-17.26-17.26h-46.479v20.519c0 11.308-9.239 20.548-20.547 20.548h-93.865c-11.308 0-20.547-9.239-20.547-20.548v-20.519h-46.48c-9.494 0-17.26 7.766-17.26 17.26z" fill="#fff" fill-rule="evenodd"/></g><g><path clip-rule="evenodd" d="m198.326 51.103h93.865c11.308 0 20.547-9.239 20.547-20.548v-20.519h-134.96v20.519c.001 11.309 9.24 20.548 20.548 20.548z" fill="#98eaf9" fill-rule="evenodd"/></g><g><path clip-rule="evenodd" d="m195.01 236.288c0-14.596 11.847-26.415 26.442-26.415s26.414 11.819 26.414 26.415h19.527l23.807-126.489h-177.16-59.403l23.835 126.489h19.499c0-14.596 11.847-26.415 26.442-26.415s26.414 11.819 26.414 26.415z" fill="#d5ea7a" fill-rule="evenodd"/></g><g><path clip-rule="evenodd" d="m124.413 262.731c14.596 0 26.414-11.847 26.414-26.443s-11.818-26.415-26.414-26.415-26.442 11.819-26.442 26.415c0 10.912 6.632 20.293 16.069 24.317 3.174 1.361 6.688 2.126 10.373 2.126z" fill="#cfd3df" fill-rule="evenodd"/></g><g><path clip-rule="evenodd" d="m221.452 262.731c14.596 0 26.414-11.847 26.414-26.443s-11.818-26.415-26.414-26.415-26.442 11.819-26.442 26.415 11.847 26.443 26.442 26.443z" fill="#cfd3df" fill-rule="evenodd"/></g><g><path clip-rule="evenodd" d="m131.3 433.122 188.581.368c-12.442-10.77-30.835-18.961-30.835-35.115v-15.248h-175.006v32.763c0 9.466 7.765 17.232 17.26 17.232z" fill="#98eaf9" fill-rule="evenodd"/></g><g><path clip-rule="evenodd" d="m475.785 501.964c5.697 0 10.373-4.676 10.373-10.373v-20.236-11.819c0-26.896 12.272-24.374 15.843-57.222v-63.231-6.717-30.496c0-29.475-41.775-29.532-41.86-.113v-.028-28.172c0-29.475-41.775-29.504-41.831-.057v-.028-17.714c0-29.504-41.831-29.504-41.831 0v-25.111-26.556-.142c-.113-29.362-41.831-29.334-41.831.142v138.875c0-14.171-8.757-26.131-21.171-30.893-12.924-4.988-24.203-1.332-24.43 13.887v41.237 15.928 15.248c0 16.155 18.393 24.346 30.835 35.115 1.644 1.445 3.203 2.919 4.591 4.478 16.835 18.791 16.976 35.03 17.005 53.623 0 5.668 4.62 10.316 10.288 10.373h.057 123.962z" fill="#f2b394" fill-rule="evenodd"/></g><g><path d="m481.062 269.732c-3.719 0-7.448.653-10.966 1.932-.902-19.859-15.975-30.235-30.872-30.235-4.355 0-8.724.889-12.75 2.64-4.544-13.456-16.868-20.438-29.081-20.438-3.702 0-7.412.647-10.916 1.915v-21.454-176.796c0-15.031-12.229-27.26-27.26-27.26h-227.918c-15.031 0-27.259 12.229-27.259 27.26v72.503h-41.117l-4.666-24.757c-.987-5.235-5.888-8.728-11.104-8.054-.427-.055-37.153-.094-37.153-.094-5.523 0-10 4.477-10 10s4.477 10 10 10h30.139l28.506 151.246c.891 4.726 5.019 8.148 9.827 8.148h10.905c2.381 8.328 7.658 15.442 14.663 20.189v149.413c0 15.016 12.229 27.232 27.24 27.232l184.644.36c.38.385.752.77 1.099 1.159 14.453 16.132 14.453 29.731 14.453 46.95 0 11.234 9.126 20.374 20.344 20.374h17.033c5.523 0 10-4.477 10-10s-4.477-10-10-10h-17.033c-.152 0-.344-.176-.344-.374 0-18.912 0-38.467-19.553-60.291-4.644-5.189-10.415-9.402-15.996-13.477-10.504-7.668-16.882-12.804-16.882-19.448v-72.33c.05-2.748.666-4.846 1.611-5.484 1.274-.86 4.618-.933 9.238.851 8.961 3.437 14.752 11.898 14.752 21.556v31.544c0 5.523 4.477 10 10 10s10-4.477 10-10v-31.544-138.876c0-11.553 9.086-12.138 10.908-12.138 1.824 0 10.923.585 10.923 12.138v114.558c0 5.523 4.477 10 10 10s10-4.477 10-10v-62.89c0-11.543 9.093-12.128 10.916-12.128 2.881 0 5.625 1.027 7.529 2.817 2.247 2.113 3.387 5.246 3.387 9.311v73.376c0 5.523 4.477 10 10 10s10-4.477 10-10v-55.578c0-11.543 9.093-12.128 10.916-12.128 2.881 0 5.625 1.027 7.529 2.817 2.247 2.113 3.387 5.246 3.387 9.311v66.065c0 5.523 4.477 10 10 10s10-4.477 10-10v-37.751c0-11.553 9.099-12.139 10.922-12.139 1.827 0 10.938.585 10.938 12.139v30.496 6.717 62.678c-1.591 14.058-4.876 20.448-8.055 26.63-3.829 7.448-7.788 15.15-7.788 31.145v32.054c0 .174-.198.374-.373.374h-17.118c-5.523 0-10 4.477-10 10s4.477 10 10 10h17.118c11.233 0 20.373-9.14 20.373-20.374v-32.054c0-11.155 2.218-15.47 5.575-22 3.671-7.142 8.24-16.029 10.209-34.141.039-.359.059-.72.059-1.081v-63.23-6.717-30.496c-.001-21.101-15.564-32.141-30.939-32.141zm-293.283-249.696h114.96v10.52c0 5.816-4.731 10.548-10.547 10.548h-93.865c-5.816 0-10.547-4.732-10.547-10.548v-10.52zm-98.4 206.252h-2.616l-20.066-106.489h212.445l-20.042 106.489h-2.641c-4.358-15.23-18.396-26.415-35.007-26.415-16.624 0-30.673 11.184-35.033 26.415h-27c-4.358-15.23-18.396-26.415-35.007-26.415-16.623.001-30.672 11.185-35.033 26.415zm148.487 10c0 9.066-7.363 16.443-16.414 16.443-9.066 0-16.442-7.376-16.442-16.443 0-9.051 7.376-16.415 16.442-16.415 9.051.001 16.414 7.364 16.414 16.415zm-129.895 0c0-9.051 7.376-16.415 16.442-16.415 9.051 0 16.414 7.363 16.414 16.415 0 9.066-7.363 16.443-16.414 16.443-9.066 0-16.442-7.377-16.442-16.443zm23.328 186.834c-3.935 0-7.259-3.312-7.259-7.232v-22.763h155.005v5.248c0 10.667 5.299 18.616 11.983 25.059zm235.179-249.251c-3.506-1.269-7.219-1.917-10.923-1.917-15.359 0-30.908 11.039-30.908 32.138v102.435c-2.359-1.481-4.887-2.753-7.57-3.782-10.575-4.082-20.38-3.642-27.61 1.239-4.652 3.14-10.236 9.476-10.42 21.829 0 .049-.001.099-.001.149v47.165h-155.006v-100.404c.125.001.248.008.373.008 16.613 0 30.654-11.197 35.009-26.443h26.995c4.358 15.246 18.409 26.443 35.036 26.443 16.613 0 30.654-11.197 35.009-26.443h10.932c4.81 0 8.938-3.424 9.828-8.15l23.807-126.489c.55-2.925-.23-5.942-2.13-8.233s-4.721-3.616-7.697-3.616h-167.162v-72.504c0-4.003 3.256-7.26 7.259-7.26h36.479v10.52c0 16.844 13.704 30.548 30.547 30.548h93.865c16.844 0 30.547-13.704 30.547-30.548v-10.52h36.479c4.003 0 7.26 3.257 7.26 7.26v146.575z"/><path d="m172.933 198.674c5.523 0 10-4.477 10-10v-36.731c0-5.523-4.477-10-10-10s-10 4.477-10 10v36.731c0 5.523 4.477 10 10 10z"/><path d="m134.413 167.701v-15.758c0-5.523-4.477-10-10-10s-10 4.477-10 10v15.758c0 5.523 4.477 10 10 10s10-4.477 10-10z"/><path d="m221.452 177.701c5.523 0 10-4.477 10-10v-15.758c0-5.523-4.477-10-10-10s-10 4.477-10 10v15.758c0 5.523 4.477 10 10 10z"/><path d="m413.774 491.964c-5.523 0-10 4.477-10 10s4.477 10 10 10h.028c5.523 0 9.986-4.477 9.986-10s-4.491-10-10.014-10z"/></g></g></svg>