<svg id="Capa_1" enable-background="new 0 0 512 512" height="512" viewBox="0 0 512 512" width="512" xmlns="http://www.w3.org/2000/svg"><g><path d="m292.056 0h-72.113c-5.69 0-10.302 4.612-10.302 10.302v54.6h92.716v-54.6c.001-5.69-4.611-10.302-10.301-10.302z" fill="#aee69c"/><path d="m292.056 0h-30.905c5.69 0 10.302 4.612 10.302 10.302v54.6h30.905v-54.6c0-5.69-4.612-10.302-10.302-10.302z" fill="#89daa4"/><path d="m133.924 120.109v-6.986c0-10.757 5.594-20.741 14.768-26.358l53.522-32.769c4.857-2.974 10.442-4.548 16.137-4.548h75.297c5.695 0 11.28 1.574 16.137 4.548l53.522 32.769c9.174 5.617 14.768 15.6 14.768 26.358v6.985c0 17.069-13.837 30.905-30.905 30.905l-182.342.001c-17.068 0-30.904-13.837-30.904-30.905z" fill="#fef0ae"/><path d="m347.171 151.014c17.069 0 30.905-13.837 30.905-30.905v-6.985c0-10.757-5.594-20.741-14.768-26.358l-53.522-32.769c-4.857-2.974-10.442-4.548-16.137-4.548h-30.905c5.695 0 11.28 1.574 16.137 4.548l53.522 32.769c9.175 5.617 14.768 15.6 14.768 26.358v6.985c0 17.069-13.837 30.905-30.905 30.905z" fill="#fee97d"/><path d="" fill="#fee97d"/><path d="m378.076 298.112v182.982c0 17.069-13.837 30.905-30.905 30.905h-182.342c-17.069 0-30.905-13.837-30.905-30.905v-182.982c0-17.069 13.837-30.905 30.905-30.905h182.342c17.069 0 30.905 13.837 30.905 30.905z" fill="#fef0ae"/><path d="m347.171 267.207h-30.905c17.069 0 30.905 13.837 30.905 30.905v182.982c0 17.069-13.837 30.905-30.905 30.905h30.905c17.069 0 30.905-13.837 30.905-30.905v-182.982c0-17.068-13.836-30.905-30.905-30.905z" fill="#fee97d"/><g><path d="m360.048 189.634h-208.096c-5.69 0-10.302-4.612-10.302-10.302v-18.352c0-5.69 4.612-10.302 10.302-10.302h208.097c5.69 0 10.302 4.612 10.302 10.302v18.352c-.001 5.69-4.613 10.302-10.303 10.302z" fill="#ffe179"/><path d="m360.048 150.679h-30.905c5.69 0 10.302 4.612 10.302 10.302v18.352c0 5.69-4.612 10.302-10.302 10.302h30.905c5.69 0 10.302-4.612 10.302-10.302v-18.352c0-5.69-4.612-10.302-10.302-10.302z" fill="#fbd268"/><path d="m360.048 228.589h-208.096c-5.69 0-10.302-4.612-10.302-10.302v-18.352c0-5.69 4.612-10.302 10.302-10.302h208.097c5.69 0 10.302 4.612 10.302 10.302v18.352c-.001 5.69-4.613 10.302-10.303 10.302z" fill="#fef0ae"/><path d="m360.048 189.634h-30.905c5.69 0 10.302 4.612 10.302 10.302v18.352c0 5.69-4.612 10.302-10.302 10.302h30.905c5.69 0 10.302-4.612 10.302-10.302v-18.352c0-5.69-4.612-10.302-10.302-10.302z" fill="#fee97d"/><path d="m360.048 267.545h-208.096c-5.69 0-10.302-4.612-10.302-10.302v-18.352c0-5.69 4.612-10.302 10.302-10.302h208.097c5.69 0 10.302 4.612 10.302 10.302v18.352c-.001 5.689-4.613 10.302-10.303 10.302z" fill="#ffe179"/><path d="m360.048 228.589h-30.905c5.69 0 10.302 4.612 10.302 10.302v18.352c0 5.69-4.612 10.302-10.302 10.302h30.905c5.69 0 10.302-4.612 10.302-10.302v-18.352c0-5.689-4.612-10.302-10.302-10.302z" fill="#fbd268"/></g><g><g><g><path d="m318.5 433.805c-3.709-.636-6.421-3.852-6.421-7.615v-73.234c0-4.267 3.459-7.726 7.726-7.726s7.726 3.459 7.726 7.726v65.57c4.932-.003 11.652-.027 17.896-.062h.044c4.247 0 7.701 3.431 7.725 7.683.024 4.267-3.417 7.745-7.683 7.77-8.361.046-26.457-.017-27.013-.112z" fill="#fff"/></g></g><g><g><path d="m278.16 433.978c-4.268 0-7.726-3.459-7.726-7.726v-73.296c0-4.267 3.459-7.726 7.726-7.726 4.268 0 7.726 3.459 7.726 7.726v73.296c0 4.267-3.458 7.726-7.726 7.726z" fill="#fff"/></g></g><g><path d="m203.176 433.978c-24.468 0-44.374-19.906-44.374-44.374s19.906-44.375 44.374-44.375 44.375 19.906 44.375 44.375c0 24.467-19.907 44.374-44.375 44.374zm0-73.296c-15.947 0-28.922 12.974-28.922 28.922 0 15.947 12.974 28.922 28.922 28.922s28.922-12.974 28.922-28.922-12.974-28.922-28.922-28.922z" fill="#fff"/></g></g></g></svg>